# xmcd
#
# Track frame offsets:
# 150
# 20515
# 35256
# 56345
# 79990
# 94420
# 112757
# 149923
# 168416
# 189231
# 209609
#
# Disc length: 3055 seconds
#
#
# Revision: 14
# Processed by: cddbd v1.4PL0 Copyright (c) Steve Scherf et al.
# Submitted via: FreeRIP 2.30 
#
DISCID=960bed0b
DTITLE=Bob Dylan - Bob Dylan   Bob Dylan Live 1975: The Rolling Thunder Revue - Disc 2
DYEAR=2002
DGENRE=Rock
TTITLE0=It's All Over Now, Baby Blue
TTITLE1=Love Minus Zero\\No Limit
TTITLE2=Tangled Up In Blue
TTITLE3=The Water Is Wide
TTITLE4=It Takes A Lot To Laugh, It Takes A Train To Cry
TTITLE5=Oh, Sister
TTITLE6=Hurricane
TTITLE7=One More Cup Of Coffee (Valley Below)
TTITLE8=Sara
TTITLE9=Just Like A Woman
TTITLE10=Knockin' On Heaven's Door
EXTD=CD 2/2\n(c)2002 Sony Music Entertainment Inc/LEGACY\nProduced by Jeff Rosen and Seve Berkowitz\nupc 51014002000\n
EXTT0=
EXTT1=
EXTT2=
EXTT3=
EXTT4=
EXTT5=
EXTT6=
EXTT7=
EXTT8=
EXTT9=
EXTT10=
PLAYORDER=
